<?xml version="1.0" encoding="UTF-8" standalone="no"?>
<svg width="260px" height="31px" viewBox="0 0 260 31" version="1.1" xmlns="http://www.w3.org/2000/svg" xmlns:xlink="http://www.w3.org/1999/xlink" xmlns:sketch="http://www.bohemiancoding.com/sketch/ns">
    <!-- Generator: Sketch 3.5.2 (25235) - http://www.bohemiancoding.com/sketch -->
    <title>Zipwire Medical v5</title>
    <desc>Created with Sketch.</desc>
    <defs>
        <path id="path-1" d="M0,0.769 L259.877,0.769 L259.877,31 L0,31 L0,0.769 Z"></path>
    </defs>
    <g id="Practioner-Card---detail-(alt-1)" stroke="none" stroke-width="1" fill="none" fill-rule="evenodd" sketch:type="MSPage">
        <g id="Site-header" sketch:type="MSLayerGroup" transform="translate(-895.000000, 0.000000)">
            <g id="logo-3" transform="translate(895.000000, 0.000000)">
                <g id="Logo">
                    <g id="Healthcare-Data" transform="translate(108.000000, 10.000000)" fill="#FFFFFF" sketch:type="MSShapeGroup">
                        <path d="M0.7529,11.3956 L0.7529,0.9106 L2.5229,0.9106 L2.5229,5.4556 L7.7279,5.4556 L7.7279,0.9106 L9.4979,0.9106 L9.4979,11.3956 L7.7279,11.3956 L7.7279,7.1056 L2.5229,7.1056 L2.5229,11.3956 L0.7529,11.3956 Z" id="Fill-1"></path>
                        <path d="M20.0723,0.9102 L20.0723,2.5752 L14.4773,2.5752 L14.4773,5.3502 L19.5023,5.3502 L19.5023,6.9262 L14.4773,6.9262 L14.4773,9.7302 L20.2523,9.7302 L20.2523,11.3952 L12.7073,11.3952 L12.7073,0.9102 L20.0723,0.9102 Z" id="Fill-2"></path>
                        <path d="M28.833,7.3761 L26.928,3.0561 L25.023,7.3761 L28.833,7.3761 Z M24.303,9.0111 L23.253,11.3961 L21.363,11.3961 L25.983,0.9101 L27.873,0.9101 L32.492,11.3961 L30.603,11.3961 L29.553,9.0111 L24.303,9.0111 Z" id="Fill-3"></path>
                        <path d="M34.2471,11.3956 L34.2471,0.9106 L36.0181,0.9106 L36.0181,9.7156 L40.8021,9.7156 L40.8021,11.3956 L34.2471,11.3956 Z" id="Fill-4"></path>
                        <path d="M45.917,2.5303 L45.917,11.3953 L44.147,11.3953 L44.147,2.5303 L40.967,2.5303 L40.967,0.9103 L49.098,0.9103 L49.098,2.5303 L45.917,2.5303 Z" id="Fill-5"></path>
                        <path d="M51.3174,11.3956 L51.3174,0.9106 L53.0874,0.9106 L53.0874,5.4556 L58.2924,5.4556 L58.2924,0.9106 L60.0624,0.9106 L60.0624,11.3956 L58.2924,11.3956 L58.2924,7.1056 L53.0874,7.1056 L53.0874,11.3956 L51.3174,11.3956 Z" id="Fill-6"></path>
                        <path d="M68.0566,9.7901 C68.6656,9.7901 69.1916,9.6881 69.6316,9.4831 C70.0716,9.2781 70.5316,8.9501 71.0116,8.5011 L72.1516,9.6711 C71.0416,10.9001 69.6946,11.5161 68.1096,11.5161 C66.5246,11.5161 65.2086,11.0061 64.1636,9.9851 C63.1196,8.9661 62.5966,7.6761 62.5966,6.1151 C62.5966,4.5561 63.1286,3.2561 64.1946,2.2161 C65.2586,1.1761 66.6036,0.6551 68.2296,0.6551 C69.8546,0.6551 71.2116,1.2561 72.3016,2.4551 L71.1766,3.6851 C70.6766,3.2051 70.2036,2.8701 69.7586,2.6811 C69.3146,2.4901 68.7916,2.3951 68.1916,2.3951 C67.1316,2.3951 66.2416,2.7381 65.5216,3.4231 C64.8016,4.1081 64.4416,4.9831 64.4416,6.0481 C64.4416,7.1131 64.7986,8.0031 65.5136,8.7181 C66.2286,9.4331 67.0766,9.7901 68.0566,9.7901" id="Fill-7"></path>
                        <path d="M80.627,7.3761 L78.722,3.0561 L76.817,7.3761 L80.627,7.3761 Z M76.097,9.0111 L75.047,11.3961 L73.157,11.3961 L77.777,0.9101 L79.667,0.9101 L84.287,11.3961 L82.398,11.3961 L81.347,9.0111 L76.097,9.0111 Z" id="Fill-9"></path>
                        <path d="M92.0566,5.8009 C92.4166,5.4899 92.5966,4.9929 92.5966,4.3079 C92.5966,3.6229 92.4106,3.1539 92.0416,2.8989 C91.6716,2.6429 91.0116,2.5159 90.0616,2.5159 L87.8116,2.5159 L87.8116,6.2659 L90.0166,6.2659 C91.0166,6.2659 91.6966,6.1109 92.0566,5.8009 M94.4116,4.3159 C94.4116,6.0459 93.6566,7.1359 92.1466,7.5859 L94.8916,11.3959 L92.6416,11.3959 L90.1366,7.8699 L87.8116,7.8699 L87.8116,11.3959 L86.0416,11.3959 L86.0416,0.9099 L89.9416,0.9099 C91.5416,0.9099 92.6866,1.1809 93.3766,1.7209 C94.0666,2.2609 94.4116,3.1259 94.4116,4.3159" id="Fill-11"></path>
                        <path d="M104.627,0.9102 L104.627,2.5752 L99.032,2.5752 L99.032,5.3502 L104.057,5.3502 L104.057,6.9262 L99.032,6.9262 L99.032,9.7302 L104.807,9.7302 L104.807,11.3952 L97.262,11.3952 L97.262,0.9102 L104.627,0.9102 Z" id="Fill-13"></path>
                        <path d="M118.6963,6.1456 C118.6963,3.7456 117.3213,2.5456 114.5713,2.5456 L112.8013,2.5456 L112.8013,9.7306 L114.7663,9.7306 C116.0363,9.7306 117.0093,9.4276 117.6833,8.8236 C118.3593,8.2176 118.6963,7.3256 118.6963,6.1456 M118.9673,2.2836 C119.9763,3.1986 120.4813,4.4706 120.4813,6.1006 C120.4813,7.7306 119.9913,9.0206 119.0113,9.9706 C118.0313,10.9206 116.5313,11.3956 114.5113,11.3956 L111.0313,11.3956 L111.0313,0.9106 L114.6323,0.9106 C116.5113,0.9106 117.9563,1.3686 118.9673,2.2836" id="Fill-15"></path>
                        <path d="M129.0771,7.3761 L127.1721,3.0561 L125.2661,7.3761 L129.0771,7.3761 Z M124.5471,9.0111 L123.4971,11.3961 L121.6061,11.3961 L126.2261,0.9101 L128.1161,0.9101 L132.7361,11.3961 L130.8471,11.3961 L129.7971,9.0111 L124.5471,9.0111 Z" id="Fill-17"></path>
                        <path d="M137.627,2.5303 L137.627,11.3953 L135.856,11.3953 L135.856,2.5303 L132.677,2.5303 L132.677,0.9103 L140.807,0.9103 L140.807,2.5303 L137.627,2.5303 Z" id="Fill-19"></path>
                        <path d="M148.2168,7.3761 L146.3118,3.0561 L144.4068,7.3761 L148.2168,7.3761 Z M143.6868,9.0111 L142.6368,11.3961 L140.7468,11.3961 L145.3668,0.9101 L147.2568,0.9101 L151.8768,11.3961 L149.9868,11.3961 L148.9378,9.0111 L143.6868,9.0111 Z" id="Fill-21"></path>
                    </g>
                    <path d="M103.6173,16.7939 C100.9283,16.7939 100.5483,18.4229 100.5483,19.6349 C100.5483,20.6199 100.7003,21.6809 100.8513,22.7029 C101.0033,23.7269 101.1543,24.7869 101.1543,25.8099 C101.1543,29.5989 98.7683,30.9999 95.6613,30.9999 L94.8663,30.9999 L94.8663,28.9169 L95.5103,28.9169 C97.6313,28.8399 98.5403,27.7419 98.5403,25.5819 C98.5403,24.7119 98.3893,23.8019 98.2753,22.8929 C98.1243,21.9459 97.9723,20.9989 97.9723,20.0139 C97.9723,17.5889 99.0333,16.3009 100.7003,15.8469 L100.7003,15.7709 C99.0333,15.3549 97.9723,14.1419 97.9723,11.7169 C97.9723,10.6949 98.1243,9.7469 98.2753,8.8379 C98.3893,7.9289 98.5403,7.0199 98.5403,6.1489 C98.5403,4.0659 97.7453,2.9289 95.5483,2.8529 L94.8663,2.8529 L94.8663,0.7689 L95.6233,0.7689 C98.8443,0.7689 101.1543,2.2849 101.1543,5.7699 C101.1543,6.7929 101.0033,7.8529 100.8513,8.9149 C100.7003,9.9749 100.5483,11.0349 100.5483,12.0579 C100.5483,13.4229 100.9283,14.8619 103.6173,14.8999 L103.6173,16.7939 Z" id="Fill-33" fill="#E30613" sketch:type="MSShapeGroup"></path>
                    <g id="Zipwire">
                        <mask id="mask-2" sketch:name="Clip 27" fill="white">
                            <use xlink:href="#path-1"></use>
                        </mask>
                        <g id="Clip-27"></g>
                        <path d="M11.9036,2.8417 L11.9036,6.4647 L4.1776,25.0227 L11.9036,25.0227 L11.9036,28.7187 L-0.0004,28.7187 L-0.0004,25.0957 L7.7266,6.5387 L0.3696,6.5387 L0.3696,2.8417 L11.9036,2.8417 Z" id="Fill-23" fill="#FEFEFE" sketch:type="MSShapeGroup" mask="url(#mask-2)"></path>
                        <path d="M14.305,2.842 L18.372,2.842 L18.372,28.719 L14.305,28.719 L14.305,2.842 Z" id="Fill-26" fill="#FEFEFE" sketch:type="MSShapeGroup" mask="url(#mask-2)"></path>
                        <path d="M25.3929,6.539 L25.3929,15.3 L27.3149,15.3 C28.6079,15.3 29.3109,14.709 29.3109,12.861 L29.3109,8.978 C29.3109,7.13 28.6079,6.539 27.3149,6.539 L25.3929,6.539 Z M33.3779,9.238 L33.3779,12.601 C33.3779,16.742 31.3809,18.997 27.3149,18.997 L25.3929,18.997 L25.3929,28.719 L21.3259,28.719 L21.3259,2.842 L27.3149,2.842 C31.3809,2.842 33.3779,5.097 33.3779,9.238 L33.3779,9.238 Z" id="Fill-28" fill="#FEFEFE" sketch:type="MSShapeGroup" mask="url(#mask-2)"></path>
                        <path d="M44.3174,14.9304 L44.2434,14.9304 L42.8014,28.7194 L37.2194,28.7194 L34.3364,2.8414 L38.2914,2.8414 L40.4364,23.2474 L40.5104,23.2474 L42.4314,2.8414 L46.3504,2.8414 L48.3464,23.3964 L48.4204,23.3964 L50.4904,2.8414 L54.0394,2.8414 L51.1564,28.7194 L45.7584,28.7194 L44.3174,14.9304 Z" id="Fill-29" fill="#FEFEFE" sketch:type="MSShapeGroup" mask="url(#mask-2)"></path>
                        <path d="M56.07,2.842 L60.137,2.842 L60.137,28.719 L56.07,28.719 L56.07,2.842 Z" id="Fill-30" fill="#FEFEFE" sketch:type="MSShapeGroup" mask="url(#mask-2)"></path>
                        <path d="M67.1585,6.539 L67.1585,14.487 L68.7475,14.487 C70.2635,14.487 71.1875,13.821 71.1875,11.751 L71.1875,9.201 C71.1875,7.352 70.5585,6.539 69.1175,6.539 L67.1585,6.539 Z M71.5945,28.719 C71.3725,28.054 71.2245,27.647 71.2245,25.539 L71.2245,21.474 C71.2245,19.07 70.4115,18.183 68.5635,18.183 L67.1585,18.183 L67.1585,28.719 L63.0915,28.719 L63.0915,2.842 L69.2285,2.842 C73.4425,2.842 75.2545,4.802 75.2545,8.794 L75.2545,10.827 C75.2545,13.488 74.4035,15.189 72.5925,16.039 L72.5925,16.113 C74.6255,16.964 75.2905,18.886 75.2905,21.585 L75.2905,25.577 C75.2905,26.833 75.3285,27.758 75.7345,28.719 L71.5945,28.719 Z" id="Fill-31" fill="#FEFEFE" sketch:type="MSShapeGroup" mask="url(#mask-2)"></path>
                        <path d="M82.0174,13.7475 L87.5984,13.7475 L87.5984,17.4435 L82.0174,17.4435 L82.0174,25.0225 L89.0404,25.0225 L89.0404,28.7185 L77.9504,28.7185 L77.9504,2.8415 L89.0404,2.8415 L89.0404,6.5385 L82.0174,6.5385 L82.0174,13.7475 Z" id="Fill-32" fill="#FEFEFE" sketch:type="MSShapeGroup" mask="url(#mask-2)"></path>
                    </g>
                </g>
            </g>
        </g>
    </g>
</svg>