<?xml version="1.0" encoding="UTF-8" standalone="no"?>
<svg width="116px" height="113px" viewBox="0 0 116 113" version="1.1" xmlns="http://www.w3.org/2000/svg" xmlns:xlink="http://www.w3.org/1999/xlink">
    <!-- Generator: Sketch 3.6.1 (26313) - http://www.bohemiancoding.com/sketch -->
    <title>Page 1</title>
    <desc>Created with Sketch.</desc>
    <defs>
        <path id="path-1" d="M114.923288,24.9648535 L114.923288,0.299318605 L0.000131024944,0.299318605 L0.000131024944,24.9648535 L114.923288,24.9648535 L114.923288,24.9648535 Z"></path>
    </defs>
    <g id="Practitioners---Grid-View" stroke="none" stroke-width="1" fill="none" fill-rule="evenodd">
        <g id="Group-3" transform="translate(-621.000000, -276.000000)">
            <g id="Profile-cards" transform="translate(0.000000, 45.000000)">
                <g id="Row-1-Copy" transform="translate(0.000000, 212.000000)">
                    <g id="Card---no-avatar-Copy-2" transform="translate(613.000000, 0.000000)">
                        <g id="Group-2" transform="translate(-8.452718, 0.000000)">
                            <g id="Page-1" transform="translate(17.000000, 19.000000)">
                                <g id="Group-3" transform="translate(0.000000, 87.878523)">
                                    <mask id="mask-2" fill="white">
                                        <use xlink:href="#path-1"></use>
                                    </mask>
                                    <g id="Clip-2"></g>
                                    <path d="M75.4076066,0.299318605 C75.4076066,0.299318605 62.7073588,12.632086 56.7051062,12.632086 C50.7015433,12.632086 37.5440184,0.717155814 37.5440184,0.717155814 C1.52133062,12.632086 0.000131024944,24.9648535 0.000131024944,24.9648535 L114.923419,24.9648535 C103.993319,7.19100465 75.4076066,0.299318605 75.4076066,0.299318605" id="Fill-1" fill="#21406A" mask="url(#mask-2)"></path>
                                </g>
                                <path d="M28.6187303,74.2059174 L28.6187303,78.5551035 L36.4265067,78.5551035 C36.4265067,78.5551035 30.3535005,83.3405221 36.4265067,83.3405221 C37.8808835,83.3405221 40.7372273,83.4403826 44.2460753,83.567836 C47.5570756,86.8027895 52.0774362,89.7526151 57.5713121,89.7526151 C62.8201713,89.7526151 67.1911634,87.0590105 70.4654768,83.9988128 C72.5356709,83.8844988 73.9061918,83.6795221 74.1603802,83.3405221 C75.4614579,81.5995337 83.2692343,80.7296965 83.2692343,80.7296965 L91.509393,74.2059174 L91.509393,72.2008244 C91.509393,72.2008244 98.4497843,70.29165 98.4497843,68.117057 C98.4497843,65.94115 89.7746227,66.8109872 92.8104707,52.8935919 C95.8463186,38.9748826 94.9789335,20.2720686 85.0040045,12.0073012 C75.0277653,3.74384767 64.184141,-4.52091977 55.5102897,2.87401047 C55.5102897,2.87401047 48.1362059,-4.08600116 38.5949695,5.04860349 C29.0524228,14.1818942 15.5660254,42.0179988 19.0774939,57.6776965 C20.1256934,62.3566849 16.4740282,60.2872081 16.4740282,60.2872081 C16.4740282,60.2872081 20.8122641,74.2059174 25.1491898,74.2059174 L28.6187303,74.2059174 Z" id="Fill-4" fill="#21406A"></path>
                            </g>
                        </g>
                    </g>
                </g>
            </g>
        </g>
    </g>
</svg>