<?xml version="1.0" encoding="UTF-8" standalone="no"?>
<svg width="115px" height="122px" viewBox="0 0 115 122" version="1.1" xmlns="http://www.w3.org/2000/svg" xmlns:xlink="http://www.w3.org/1999/xlink">
    <!-- Generator: Sketch 3.6.1 (26313) - http://www.bohemiancoding.com/sketch -->
    <title>Page 1</title>
    <desc>Created with Sketch.</desc>
    <defs>
        <path id="path-1" d="M63.1660674,0.668261649 L0.0397610048,0.668261649 L0.0397610048,92.1507597 L63.1660674,92.1507597 L63.1660674,0.668261649 L63.1660674,0.668261649 Z"></path>
        <path id="path-3" d="M0.000203496589,29.9299877 L113.498866,29.9299877 L113.498866,15.1853456 L113.498866,0.440703537 L0.000203496589,0.440703537 L0.000203496589,29.9299877 L0.000203496589,29.9299877 Z"></path>
    </defs>
    <g id="Practitioners---Grid-View" stroke="none" stroke-width="1" fill="none" fill-rule="evenodd">
        <g id="Group-3" transform="translate(-776.000000, -271.000000)">
            <g id="Profile-cards" transform="translate(0.000000, 45.000000)">
                <g id="Row-1-Copy" transform="translate(0.000000, 212.000000)">
                    <g id="Card---no-avatar-Copy-3" transform="translate(766.135497, 0.000000)">
                        <g id="Group-2" transform="translate(-8.452718, 0.000000)">
                            <g id="Page-1" transform="translate(19.000000, 13.000000)">
                                <g id="Group-3" transform="translate(24.883326, 0.733126)">
                                    <mask id="mask-2" fill="white">
                                        <use xlink:href="#path-1"></use>
                                    </mask>
                                    <g id="Clip-2"></g>
                                    <path d="M57.1973924,64.7744476 C64.2294319,61.532608 62.9116299,51.0183446 63.1444322,47.689645 C63.3772345,44.3595445 61.6544977,43.9434571 61.6544977,43.9434571 C65.0068504,33.1209807 59.6862603,11.5208589 59.6862603,11.5208589 L52.8503391,10.2277656 C44.8856797,-2.25906061 22.2502445,1.0710399 22.2502445,1.0710399 L22.2502445,3.56756455 C22.2502445,3.56756455 10.0937333,6.48157761 3.38620614,13.5578661 C-3.32132105,20.6341545 2.12766296,45.1917194 2.12766296,45.1917194 C-1.64373379,46.0238943 0.870530711,57.6785456 0.870530711,61.0086461 C0.870530711,64.3387466 5.06238248,65.5870089 5.06238248,65.5870089 C5.48142656,74.3276471 16.2368914,84.7256303 16.2368914,84.7256303 C16.2368914,84.7256303 21.0636584,92.1507597 31.6032521,92.1507597 C51.0782201,92.1507597 57.1973924,64.7744476 57.1973924,64.7744476" id="Fill-1" fill="#21406A" mask="url(#mask-2)"></path>
                                </g>
                                <g id="Group-6" transform="translate(0.000000, 92.687339)">
                                    <mask id="mask-4" fill="white">
                                        <use xlink:href="#path-3"></use>
                                    </mask>
                                    <g id="Clip-5"></g>
                                    <path d="M79.0667052,0.44437837 C79.0667052,0.44437837 113.498866,-0.54470491 113.498866,29.930548 L0.112873827,29.930548 C0.112873827,29.930548 -3.72201446,0.440175467 33.354216,0.943122914 C33.354216,0.943122914 49.2397963,15.1867627 56.486296,15.1867627 C63.7327957,15.1867627 79.0667052,0.44437837 79.0667052,0.44437837" id="Fill-4" fill="#21406A" mask="url(#mask-4)"></path>
                                </g>
                            </g>
                        </g>
                    </g>
                </g>
            </g>
        </g>
    </g>
</svg>