<?xml version="1.0" encoding="UTF-8" standalone="no"?>
<svg width="17px" height="17px" viewBox="0 0 17 17" version="1.1" xmlns="http://www.w3.org/2000/svg" xmlns:xlink="http://www.w3.org/1999/xlink" xmlns:sketch="http://www.bohemiancoding.com/sketch/ns">
    <!-- Generator: Sketch 3.5.2 (25235) - http://www.bohemiancoding.com/sketch -->
    <title>Zipwire Medical v5</title>
    <desc>Created with Sketch.</desc>
    <defs>
        <path id="path-1" d="M0,0.0274615385 L17,0.0274615385 L17,16.8365385 L0,16.8365385 L0,0.0274615385 Z"></path>
    </defs>
    <g id="Practioner-Card---detail-(alt-1)" stroke="none" stroke-width="1" fill="none" fill-rule="evenodd" sketch:type="MSPage">
        <g id="Page-content" sketch:type="MSLayerGroup" transform="translate(-387.000000, 0.000000)">
            <g id="Main-page---detail-view" transform="translate(3.000000, 0.000000)">
                <g id="Activity" transform="translate(384.000000, 0.000000)">
                    <g id="calendar">
                        <mask id="mask-2" sketch:name="Clip 2" fill="white">
                            <use xlink:href="#path-1"></use>
                        </mask>
                        <g id="Clip-2"></g>
                        <path d="M13.0552408,3.08806635 L13.0552408,1.02109519 C13.0552408,0.474643269 12.603668,0.0274125 12.0519107,0.0274125 L12.0519107,0.0274125 C11.4999883,0.0274125 11.0485806,0.474643269 11.0485806,1.02109519 L11.0485806,3.08806635 C11.0485806,3.63468173 11.4999883,4.08174904 12.0519107,4.08174904 L12.0519107,4.08174904 C12.603668,4.08174904 13.0552408,3.63468173 13.0552408,3.08806635 L13.0552408,3.08806635 Z M5.95138641,3.08806635 L5.95138641,1.02109519 C5.95138641,0.474643269 5.49997864,0.0274125 4.94805631,0.0274125 L4.94805631,0.0274125 C4.39629903,0.0274125 3.94472621,0.474643269 3.94472621,1.02109519 L3.94472621,3.08806635 C3.94472621,3.63468173 4.39629903,4.08174904 4.94805631,4.08174904 L4.94805631,4.08174904 C5.49997864,4.08174904 5.95138641,3.63468173 5.95138641,3.08806635 L5.95138641,3.08806635 Z M16.1748233,5.76965288 C16.1655806,5.77014327 16.1569981,5.77226827 16.1475903,5.77226827 L0.852376699,5.77226827 C0.843133981,5.77226827 0.834386408,5.77014327 0.825308738,5.76965288 L0.825308738,15.5425279 C0.825308738,15.805374 1.04119223,16.0191817 1.30642524,16.0191817 L15.6935417,16.0191817 C15.9587748,16.0191817 16.1748233,15.805374 16.1748233,15.5425279 L16.1748233,5.76965288 Z M17.000066,3.25545096 L17.000066,15.5425279 C17.000066,16.256201 16.4138136,16.8364894 15.6935417,16.8364894 L1.30642524,16.8364894 C0.58598835,16.8364894 6.60194175e-05,16.256201 6.60194175e-05,15.5425279 L6.60194175e-05,3.25545096 C6.60194175e-05,2.54194135 0.58598835,1.96148942 1.30642524,1.96148942 L3.44958058,1.96148942 L3.44958058,3.08806635 C3.44958058,3.90635481 4.1218233,4.57213365 4.94805631,4.57213365 C5.77445437,4.57213365 6.44653204,3.90635481 6.44653204,3.08806635 L6.44653204,1.96148942 L10.553435,1.96148942 L10.553435,3.08806635 C10.553435,3.90635481 11.2256777,4.57213365 12.0519107,4.57213365 C12.8781437,4.57213365 13.5503864,3.90635481 13.5503864,3.08806635 L13.5503864,1.96148942 L15.6935417,1.96148942 C16.4138136,1.96148942 17.000066,2.54194135 17.000066,3.25545096 L17.000066,3.25545096 Z M9.54350291,14.4354029 L9.54350291,12.7819894 C9.54350291,12.6683837 9.44959029,12.5752106 9.3347165,12.5752106 L7.66525049,12.5752106 C7.5503767,12.5752106 7.45646408,12.6683837 7.45646408,12.7819894 L7.45646408,14.4354029 C7.45646408,14.5491721 7.5503767,14.6421817 7.66525049,14.6421817 L9.3347165,14.6421817 C9.44959029,14.6421817 9.54350291,14.5491721 9.54350291,14.4354029 L9.54350291,14.4354029 Z M6.71110485,14.4354029 L6.71110485,12.7819894 C6.71110485,12.6683837 6.61719223,12.5752106 6.50231845,12.5752106 L4.83301748,12.5752106 C4.71814369,12.5752106 4.62423107,12.6683837 4.62423107,12.7819894 L4.62423107,14.4354029 C4.62423107,14.5491721 4.71814369,14.6421817 4.83301748,14.6421817 L6.50231845,14.6421817 C6.61719223,14.6421817 6.71110485,14.5491721 6.71110485,14.4354029 L6.71110485,14.4354029 Z M3.87887184,14.4354029 L3.87887184,12.7819894 C3.87887184,12.6683837 3.78479417,12.5752106 3.67008544,12.5752106 L2.00061942,12.5752106 C1.88574563,12.5752106 1.79183301,12.6683837 1.79183301,12.7819894 L1.79183301,14.4354029 C1.79183301,14.5491721 1.88574563,14.6421817 2.00061942,14.6421817 L3.67008544,14.6421817 C3.78479417,14.6421817 3.87887184,14.5491721 3.87887184,14.4354029 L3.87887184,14.4354029 Z M15.208134,11.699874 L15.208134,10.046624 C15.208134,9.93285481 15.1142214,9.83984519 14.9993476,9.83984519 L13.3300466,9.83984519 C13.2151728,9.83984519 13.1210951,9.93285481 13.1210951,10.046624 L13.1210951,11.699874 C13.1210951,11.8136433 13.2151728,11.9066529 13.3300466,11.9066529 L14.9993476,11.9066529 C15.1142214,11.9066529 15.208134,11.8136433 15.208134,11.699874 L15.208134,11.699874 Z M12.375901,11.699874 L12.375901,10.046624 C12.375901,9.93285481 12.2818233,9.83984519 12.1669495,9.83984519 L10.4976485,9.83984519 C10.3827748,9.83984519 10.2888621,9.93285481 10.2888621,10.046624 L10.2888621,11.699874 C10.2888621,11.8136433 10.3827748,11.9066529 10.4976485,11.9066529 L12.1669495,11.9066529 C12.2818233,11.9066529 12.375901,11.8136433 12.375901,11.699874 L12.375901,11.699874 Z M9.54350291,11.699874 L9.54350291,10.046624 C9.54350291,9.93285481 9.44959029,9.83984519 9.3347165,9.83984519 L7.66525049,9.83984519 C7.5503767,9.83984519 7.45646408,9.93285481 7.45646408,10.046624 L7.45646408,11.699874 C7.45646408,11.8136433 7.5503767,11.9066529 7.66525049,11.9066529 L9.3347165,11.9066529 C9.44959029,11.9066529 9.54350291,11.8136433 9.54350291,11.699874 L9.54350291,11.699874 Z M6.71110485,11.699874 L6.71110485,10.046624 C6.71110485,9.93285481 6.61719223,9.83984519 6.50231845,9.83984519 L4.83301748,9.83984519 C4.71814369,9.83984519 4.62423107,9.93285481 4.62423107,10.046624 L4.62423107,11.699874 C4.62423107,11.8136433 4.71814369,11.9066529 4.83301748,11.9066529 L6.50231845,11.9066529 C6.61719223,11.9066529 6.71110485,11.8136433 6.71110485,11.699874 L6.71110485,11.699874 Z M3.87887184,11.699874 L3.87887184,10.046624 C3.87887184,9.93285481 3.78479417,9.83984519 3.67008544,9.83984519 L2.00061942,9.83984519 C1.88574563,9.83984519 1.79183301,9.93285481 1.79183301,10.046624 L1.79183301,11.699874 C1.79183301,11.8136433 1.88574563,11.9066529 2.00061942,11.9066529 L3.67008544,11.9066529 C3.78479417,11.9066529 3.87887184,11.8136433 3.87887184,11.699874 L3.87887184,11.699874 Z M15.208134,9.00292212 L15.208134,7.34967212 C15.208134,7.23590288 15.1142214,7.14289327 14.9993476,7.14289327 L13.3300466,7.14289327 C13.2151728,7.14289327 13.1210951,7.23590288 13.1210951,7.34967212 L13.1210951,9.00292212 C13.1210951,9.11669135 13.2151728,9.20986442 13.3300466,9.20986442 L14.9993476,9.20986442 C15.1142214,9.20986442 15.208134,9.11669135 15.208134,9.00292212 L15.208134,9.00292212 Z M12.375901,9.00292212 L12.375901,7.34967212 C12.375901,7.23590288 12.2818233,7.14289327 12.1669495,7.14289327 L10.4976485,7.14289327 C10.3827748,7.14289327 10.2888621,7.23590288 10.2888621,7.34967212 L10.2888621,9.00292212 C10.2888621,9.11669135 10.3827748,9.20986442 10.4976485,9.20986442 L12.1669495,9.20986442 C12.2818233,9.20986442 12.375901,9.11669135 12.375901,9.00292212 L12.375901,9.00292212 Z M9.54350291,9.00292212 L9.54350291,7.34967212 C9.54350291,7.23590288 9.44959029,7.14289327 9.3347165,7.14289327 L7.66525049,7.14289327 C7.5503767,7.14289327 7.45646408,7.23590288 7.45646408,7.34967212 L7.45646408,9.00292212 C7.45646408,9.11669135 7.5503767,9.20986442 7.66525049,9.20986442 L9.3347165,9.20986442 C9.44959029,9.20986442 9.54350291,9.11669135 9.54350291,9.00292212 L9.54350291,9.00292212 Z M6.71110485,9.00292212 L6.71110485,7.34967212 C6.71110485,7.23590288 6.61719223,7.14289327 6.50231845,7.14289327 L4.83301748,7.14289327 C4.71814369,7.14289327 4.62423107,7.23590288 4.62423107,7.34967212 L4.62423107,9.00292212 C4.62423107,9.11669135 4.71814369,9.20986442 4.83301748,9.20986442 L6.50231845,9.20986442 C6.61719223,9.20986442 6.71110485,9.11669135 6.71110485,9.00292212 L6.71110485,9.00292212 Z M3.67008544,9.20986442 L2.00061942,9.20986442 C1.88574563,9.20986442 1.79183301,9.11669135 1.79183301,9.00292212 L1.79183301,7.34967212 C1.79183301,7.23590288 1.88574563,7.14289327 2.00061942,7.14289327 L3.67008544,7.14289327 C3.78479417,7.14289327 3.87887184,7.23590288 3.87887184,7.34967212 L3.87887184,9.00292212 C3.87887184,9.11669135 3.78479417,9.20986442 3.67008544,9.20986442 L3.67008544,9.20986442 Z" id="Fill-1" fill="#0E5A71" sketch:type="MSShapeGroup" mask="url(#mask-2)"></path>
                    </g>
                </g>
            </g>
        </g>
    </g>
</svg>