<?xml version="1.0" encoding="UTF-8" standalone="no"?>
<svg width="14px" height="17px" viewBox="0 0 14 17" version="1.1" xmlns="http://www.w3.org/2000/svg" xmlns:xlink="http://www.w3.org/1999/xlink" xmlns:sketch="http://www.bohemiancoding.com/sketch/ns">
    <!-- Generator: Sketch 3.5.2 (25235) - http://www.bohemiancoding.com/sketch -->
    <title>Zipwire Medical v5</title>
    <desc>Created with Sketch.</desc>
    <defs></defs>
    <g id="Practioner-Card---detail-(alt-1)" stroke="none" stroke-width="1" fill="none" fill-rule="evenodd" sketch:type="MSPage">
        <g id="Page-content" sketch:type="MSLayerGroup" transform="translate(-708.000000, 0.000000)" fill="#0E5A71">
            <g id="Main-page---detail-view" transform="translate(3.000000, 0.000000)" sketch:type="MSShapeGroup">
                <g id="Biog" transform="translate(705.000000, 0.000000)">
                    <g id="contacts">
                        <g id="Shape">
                            <path d="M12.2606061,11.73 C11.2848485,10.71 9.96969697,10.9225 8.99393939,9.945 C8.6969697,9.6475 8.56969697,9.3075 8.61212121,8.9675 C9.33333333,8.2875 9.84242424,7.225 10.0121212,5.95 C10.0545455,5.9075 10.0545455,5.9075 10.0969697,5.865 C10.2242424,5.61 10.3515152,4.8875 10.0969697,4.1225 C10.1393939,3.74 10.1393939,3.23 10.0121212,2.7625 C9.96969697,2.5925 9.75757576,1.785 9.75757576,1.785 C9.20606061,-0.085 6.7030303,0.0425 6.7030303,0.0425 C3.30909091,0.1275 3.30909091,3.1025 3.47878788,4.4625 C3.39393939,5.2275 3.56363636,5.8225 3.77575758,6.035 C3.81818182,6.0775 3.86060606,6.12 3.9030303,6.12 C4.11515152,7.3525 4.66666667,8.415 5.38787879,9.01 C5.34545455,10.625 4.07272727,10.6675 2.41818182,11.5175 C0.424242424,12.5375 0.0848484848,17 0.0848484848,17 L13.9151515,17 C13.9151515,15.725 13.2363636,12.75 12.2606061,11.73 L12.2606061,11.73 Z"></path>
                        </g>
                    </g>
                </g>
            </g>
        </g>
    </g>
</svg>