<?xml version="1.0" encoding="UTF-8" standalone="no"?>
<svg width="20px" height="18px" viewBox="0 0 20 18" version="1.1" xmlns="http://www.w3.org/2000/svg" xmlns:xlink="http://www.w3.org/1999/xlink">
    <!-- Generator: Sketch 3.6.1 (26313) - http://www.bohemiancoding.com/sketch -->
    <title>grid</title>
    <desc>Created with Sketch.</desc>
    <defs></defs>
    <g id="Practitioners---Grid-View" stroke="none" stroke-width="1" fill="none" fill-rule="evenodd">
        <g id="Action-bar" transform="translate(-1186.000000, 0.000000)" fill="#21406A">
            <g id="Buttons" transform="translate(1155.000000, 0.000000)">
                <g id="grid" transform="translate(31.816819, 0.000000)">
                    <g id="Shape">
                        <path d="M6.26694915,1.42105263 L6.26694915,6.15789474 L1.44621904,6.15789474 L1.44621904,1.42105263 L6.26694915,1.42105263 L6.26694915,1.42105263 Z M6.55619296,0 L1.15697523,0 C0.530280313,0 -1.77635684e-15,0.521052632 -1.77635684e-15,1.13684211 L-1.77635684e-15,6.39473684 C-1.77635684e-15,7.01052632 0.530280313,7.53157895 1.15697523,7.53157895 L6.50798566,7.53157895 C7.13468057,7.53157895 7.66496089,7.01052632 7.66496089,6.39473684 L7.66496089,1.13684211 C7.71316819,0.521052632 7.18288787,0 6.55619296,0 L6.55619296,0 L6.55619296,0 Z"></path>
                        <path d="M16.8243481,1.42105263 L16.8243481,6.15789474 L12.003618,6.15789474 L12.003618,1.42105263 L16.8243481,1.42105263 L16.8243481,1.42105263 Z M17.0653846,0 L11.7143742,0 C11.0876793,0 10.557399,0.521052632 10.557399,1.13684211 L10.557399,6.39473684 C10.557399,7.01052632 11.0876793,7.53157895 11.7143742,7.53157895 L17.0653846,7.53157895 C17.6920795,7.53157895 18.2223598,7.01052632 18.2223598,6.39473684 L18.2223598,1.13684211 C18.2705671,0.521052632 17.7402868,0 17.0653846,0 L17.0653846,0 L17.0653846,0 Z"></path>
                        <path d="M6.26694915,11.7947368 L6.26694915,16.5315789 L1.44621904,16.5315789 L1.44621904,11.7947368 L6.26694915,11.7947368 L6.26694915,11.7947368 Z M6.55619296,10.3736842 L1.15697523,10.3736842 C0.530280313,10.3736842 -1.77635684e-15,10.8947368 -1.77635684e-15,11.5105263 L-1.77635684e-15,16.7684211 C-1.77635684e-15,17.3842105 0.530280313,17.9052632 1.15697523,17.9052632 L6.50798566,17.9052632 C7.13468057,17.9052632 7.66496089,17.3842105 7.66496089,16.7684211 L7.66496089,11.5105263 C7.71316819,10.8473684 7.18288787,10.3736842 6.55619296,10.3736842 L6.55619296,10.3736842 L6.55619296,10.3736842 Z"></path>
                        <path d="M16.8243481,11.7947368 L16.8243481,16.5315789 L12.003618,16.5315789 L12.003618,11.7947368 L16.8243481,11.7947368 L16.8243481,11.7947368 Z M17.0653846,10.3736842 L11.7143742,10.3736842 C11.0876793,10.3736842 10.557399,10.8947368 10.557399,11.5105263 L10.557399,16.7684211 C10.557399,17.3842105 11.0876793,17.9052632 11.7143742,17.9052632 L17.0653846,17.9052632 C17.6920795,17.9052632 18.2223598,17.3842105 18.2223598,16.7684211 L18.2223598,11.5105263 C18.2705671,10.8473684 17.7402868,10.3736842 17.0653846,10.3736842 L17.0653846,10.3736842 L17.0653846,10.3736842 Z"></path>
                    </g>
                </g>
            </g>
        </g>
    </g>
</svg>