<?xml version="1.0" encoding="UTF-8" standalone="no"?>
<svg width="19px" height="18px" viewBox="0 0 19 18" version="1.1" xmlns="http://www.w3.org/2000/svg" xmlns:xlink="http://www.w3.org/1999/xlink" xmlns:sketch="http://www.bohemiancoding.com/sketch/ns">
    <!-- Generator: Sketch 3.5.2 (25235) - http://www.bohemiancoding.com/sketch -->
    <title>Zipwire Medical v5</title>
    <desc>Created with Sketch.</desc>
    <defs></defs>
    <g id="Practioner-Card---detail-(alt-1)" stroke="none" stroke-width="1" fill="none" fill-rule="evenodd" sketch:type="MSPage">
        <g id="Page-content" sketch:type="MSLayerGroup" transform="translate(-276.000000, 0.000000)" fill="#21406A">
            <g id="Main-page---detail-view" transform="translate(3.000000, 0.000000)" sketch:type="MSShapeGroup">
                <g id="Locations" transform="translate(273.000000, 0.000000)">
                    <g id="hospital">
                        <g id="Hospital">
                            <g id="Group">
                                <path d="M14.516,3.90638298 L14.516,14.5531915 L15.77,14.5531915 L15.77,17.6170213 L18.734,17.6170213 L18.734,3.90638298 L14.516,3.90638298 L14.516,3.90638298 Z M17.214,13.0978723 L15.428,13.0978723 L15.428,11.2978723 L17.214,11.2978723 L17.214,13.0978723 L17.214,13.0978723 Z M17.214,10.187234 L15.428,10.187234 L15.428,8.38723404 L17.214,8.38723404 L17.214,10.187234 L17.214,10.187234 Z M17.214,7.31489362 L15.428,7.31489362 L15.428,5.51489362 L17.214,5.51489362 L17.214,7.31489362 Z" id="Shape"></path>
                                <path d="M0.266,7.50638298 L0.266,17.5787234 L3.23,17.5787234 L3.23,14.5148936 L4.484,14.5148936 L4.484,7.50638298 L0.266,7.50638298 L0.266,7.50638298 Z M1.824,11.2978723 L3.61,11.2978723 L3.61,13.0978723 L1.824,13.0978723 L1.824,11.2978723 L1.824,11.2978723 Z M1.824,8.38723404 L3.61,8.38723404 L3.61,10.187234 L1.824,10.187234 C1.824,10.187234 1.824,8.38723404 1.824,8.38723404 L1.824,8.38723404 Z" id="Shape"></path>
                                <path d="M5.092,0.114893617 L5.092,17.7319149 L8.512,17.7319149 L8.512,14.2851064 L10.412,14.2851064 L10.412,17.7319149 L13.832,17.7319149 L13.832,0.114893617 L5.092,0.114893617 L5.092,0.114893617 Z M8.892,12.7531915 L6.992,12.7531915 L6.992,10.8382979 L8.892,10.8382979 L8.892,12.7531915 L8.892,12.7531915 Z M8.892,9.30638298 L6.992,9.30638298 L6.992,7.39148936 L8.892,7.39148936 L8.892,9.30638298 L8.892,9.30638298 Z M8.892,6.24255319 L6.992,6.24255319 L6.992,4.32765957 L8.892,4.32765957 L8.892,6.24255319 L8.892,6.24255319 Z M8.892,2.41276596 L8.892,3.1787234 L8.512,3.1787234 L8.512,1.26382979 L8.892,1.26382979 L8.892,2.02978723 L10.032,2.02978723 L10.032,1.26382979 L10.412,1.26382979 L10.412,3.1787234 L10.032,3.1787234 L10.032,2.41276596 L8.892,2.41276596 L8.892,2.41276596 Z M11.932,12.7531915 L10.032,12.7531915 L10.032,10.8382979 L11.932,10.8382979 L11.932,12.7531915 L11.932,12.7531915 Z M11.932,9.30638298 L10.032,9.30638298 L10.032,7.39148936 L11.932,7.39148936 L11.932,9.30638298 L11.932,9.30638298 Z M11.932,6.24255319 L10.032,6.24255319 L10.032,4.32765957 L11.932,4.32765957 L11.932,6.24255319 L11.932,6.24255319 Z" id="Shape"></path>
                            </g>
                        </g>
                    </g>
                </g>
            </g>
        </g>
    </g>
</svg>