<?xml version="1.0" encoding="UTF-8" standalone="no"?>
<svg width="17px" height="17px" viewBox="0 0 17 17" version="1.1" xmlns="http://www.w3.org/2000/svg" xmlns:xlink="http://www.w3.org/1999/xlink" xmlns:sketch="http://www.bohemiancoding.com/sketch/ns">
    <!-- Generator: Sketch 3.5.2 (25235) - http://www.bohemiancoding.com/sketch -->
    <title>Zipwire Medical v5</title>
    <desc>Created with Sketch.</desc>
    <defs>
        <path id="path-1" d="M0,0.277852459 L16.7224262,0.277852459 L16.7224262,17 L0,17 L0,0.277852459 Z"></path>
    </defs>
    <g id="Location-Card---detail-(alt-1)" stroke="none" stroke-width="1" fill="none" fill-rule="evenodd" sketch:type="MSPage">
        <g id="Page-content" sketch:type="MSLayerGroup" transform="translate(-517.000000, 0.000000)">
            <g id="Main-page---detail-view" transform="translate(316.000000, 0.000000)">
                <g id="Photos" transform="translate(201.000000, 0.000000)">
                    <g id="Photo-icon">
                        <g id="Group-3">
                            <mask id="mask-2" sketch:name="Clip 2" fill="white">
                                <use xlink:href="#path-1"></use>
                            </mask>
                            <g id="Clip-2"></g>
                            <path d="M14.8704852,2.14888361 L1.87997705,2.14888361 L1.87997705,10.3512443 C2.33619016,9.57899836 2.6728459,8.9441459 3.07081311,8.34998197 C3.67556721,7.44730984 4.29899344,6.55494918 4.9606,5.69380164 C5.3711082,5.15927705 5.92012459,5.15760492 6.42761639,5.57730984 C6.80050164,5.88553934 7.16168197,6.2216377 7.46823934,6.59452295 C8.12817377,7.39686721 8.74937049,8.23098197 9.46448525,9.15260492 C9.74874754,8.82570328 9.97671475,8.49573607 10.269059,8.23934262 C11.428682,7.2224082 11.8826656,7.23299836 12.9745672,8.32071967 C13.6041246,8.94776885 14.1916,9.61745738 14.8704852,10.3456705 L14.8704852,2.14888361 Z M8.36115738,0.279162295 C10.5435672,0.279162295 12.725977,0.275260656 14.9083869,0.280555738 C16.0507311,0.283342623 16.7184689,0.949408197 16.7193049,2.09175246 C16.7232066,6.45657213 16.7232066,10.8211131 16.7193049,15.1859328 C16.7184689,16.328277 16.0507311,16.9960148 14.9083869,16.9971295 C10.5435672,17.0010311 6.17874754,17.0010311 1.81392787,16.9971295 C0.671583607,16.9960148 0.00384590164,16.328277 0.00300983607,15.1859328 C-0.000891803279,10.8211131 -0.000891803279,6.45657213 0.00300983607,2.09175246 C0.00384590164,0.949408197 0.671583607,0.283342623 1.81392787,0.280555738 C3.9963377,0.275260656 6.17874754,0.279162295 8.36115738,0.279162295 L8.36115738,0.279162295 Z" id="Fill-1" fill="#21406A" sketch:type="MSShapeGroup" mask="url(#mask-2)"></path>
                        </g>
                        <path d="M13.2091951,4.50093115 C13.2019492,5.13717705 12.6311951,5.68368525 11.9877033,5.6703082 C11.330277,5.65693115 10.8250148,5.11237377 10.8484246,4.44240656 C10.8709984,3.79696393 11.3695721,3.31260328 12.0113918,3.31288197 C12.667982,3.31288197 13.216441,3.85688197 13.2091951,4.50093115" id="Fill-4" fill="#21406A" sketch:type="MSShapeGroup"></path>
                    </g>
                </g>
            </g>
        </g>
    </g>
</svg>