<?xml version="1.0" encoding="UTF-8" standalone="no"?>
<svg width="15px" height="18px" viewBox="0 0 15 18" version="1.1" xmlns="http://www.w3.org/2000/svg" xmlns:xlink="http://www.w3.org/1999/xlink" xmlns:sketch="http://www.bohemiancoding.com/sketch/ns">
    <!-- Generator: Sketch 3.5.2 (25235) - http://www.bohemiancoding.com/sketch -->
    <title>Zipwire Medical v5</title>
    <desc>Created with Sketch.</desc>
    <defs>
        <path id="path-1" d="M0,0.1482 L14.845,0.1482 L14.845,18 L0,18 L0,0.1482 Z"></path>
    </defs>
    <g id="Practioner-Card---detail-(alt-1)" stroke="none" stroke-width="1" fill="none" fill-rule="evenodd" sketch:type="MSPage">
        <g id="Page-content" sketch:type="MSLayerGroup" transform="translate(-283.000000, 0.000000)">
            <g id="Main-page---detail-view" transform="translate(3.000000, 0.000000)">
                <g id="Organisations" transform="translate(280.000000, 0.000000)">
                    <g id="shield">
                        <mask id="mask-2" sketch:name="Clip 2" fill="white">
                            <use xlink:href="#path-1"></use>
                        </mask>
                        <g id="Clip-2"></g>
                        <path d="M7.33505882,1.28082 C5.33947059,1.89792 3.39770588,2.48532 1.47064706,3.11892 C1.31035294,3.17172 1.16388235,3.53442 1.15652941,3.75792 C1.12329412,4.78092 1.19505882,5.80902 1.13152941,6.82902 C0.965941176,9.48642 1.88064706,11.71962 3.59741176,13.65702 C4.66388235,14.86062 5.86917647,15.88722 7.33505882,16.71102 L7.33505882,1.28082 Z M14.8450588,5.74182 C14.7271176,7.10562 14.7565294,8.50332 14.4606471,9.82542 C13.8635882,12.49212 12.2518235,14.57922 10.1491765,16.16322 C6.89858824,18.61242 7.85035294,18.61242 4.59947059,16.16292 C2.49711765,14.57892 0.941529412,12.47922 0.269470588,9.82902 C0.105941176,9.18342 0.0353529412,8.49942 0.0209411765,7.83072 C-0.0143529412,6.20772 0.0218235294,4.58292 0.000352941176,2.95902 C-0.00552941176,2.52042 0.110352941,2.29512 0.551823529,2.16462 C2.71417647,1.52532 4.86447059,0.84492 7.02417647,0.19692 C7.24094118,0.13182 7.50858824,0.13182 7.72535294,0.19692 C9.86123529,0.83892 11.9862353,1.51992 14.1271176,2.14362 C14.6324118,2.29092 14.7724118,2.53062 14.7512353,3.03492 C14.7135882,3.93282 14.7406471,4.83342 14.7406471,5.73282 C14.7753529,5.73582 14.8103529,5.73882 14.8450588,5.74182 L14.8450588,5.74182 Z" id="Fill-1" fill="#0E5A71" sketch:type="MSShapeGroup" mask="url(#mask-2)"></path>
                    </g>
                </g>
            </g>
        </g>
    </g>
</svg>